<?xml version="1.0" encoding="utf-8"?>
<!-- Generator: Adobe Illustrator 19.0.0, SVG Export Plug-In . SVG Version: 6.00 Build 0)  -->
<svg version="1.1" id="Layer_1" xmlns="http://www.w3.org/2000/svg" xmlns:xlink="http://www.w3.org/1999/xlink" x="0px" y="0px"
	 viewBox="0 0 357.2 90.7" style="enable-background:new 0 0 357.2 90.7;" xml:space="preserve">
<style type="text/css">
	.st0{fill:#ADA9AE;}
	.st1{fill:#283779;}
	.st2{fill:#B1AEB3;}
	.st3{fill:#CED837;}
	.st4{fill:#72B845;}
	.st5{fill:#2BB6BC;}
	.st6{fill:#5CB45F;}
	.st7{fill:#3188C9;}
	.st8{fill:#1F396F;}
	.st9{fill:#727A82;}
	.st10{fill:#CAC9C9;}
	.st11{fill:#929497;}
	.st12{fill:url(#XMLID_189_);}
</style>
<g id="XMLID_1_">
	<g id="XMLID_4_">
		<path id="XMLID_166_" class="st0" d="M44.1,58.1L44.1,58.1c0,2.5-1.8,4.4-4.8,4.4c-2.4,0-4-0.9-5.2-2.3l2-1.9
			c0.9,1,1.9,1.6,3.2,1.6c1.1,0,1.9-0.6,1.9-1.6c0,0,0.2-1.7-2.6-1.7h-1.2L37,54.6l4.3-4.3l-1.7,1.1h-4.6V49h9v2.2l-3.4,3.2
			C42.3,54.7,44.1,55.6,44.1,58.1 M35.8,42.9c0-1.2,0.9-2.2,2.1-2.2h1.4l-0.4,0.2c0,3.3-0.1,3.7,0.1,4.2l-1.1,0
			C36.6,45.1,35.8,44.1,35.8,42.9L35.8,42.9z M37.8,45.6h1.2v-0.4c0.1,0.2,0.2,0.3,0.4,0.4c0.4,0.2,0.1,0.1,11.2,0.1v-5.5H50v4.9
			c0,0-10.1,0-10.3,0c-0.2-0.1-0.2-0.2-0.3-0.4c0-0.3,0-0.3,0-4.4h-1.6c-1.6,0-2.7,1.3-2.7,2.7v0C35.1,44.4,36.2,45.6,37.8,45.6
			 M54.9,39.6h-1.3c0-0.4-0.2-1.2,0.7-1.2h0.4v0.4c-0.4,0-0.6-0.1-0.6,0.2v0.1h0.8V39.6z M56.4,45.7c-0.2,0-0.3,0-0.5-0.1l0.2-0.6
			c0.3,0.1,0.6,0.1,0.7-0.2c0.2-0.3,0.1-0.4,0.1-4.8h0.6c0,4.1,0,4.2-0.1,4.7C57.3,45.4,57,45.7,56.4,45.7 M39.4,39.6h-0.6V39h0.6
			V39.6z M52.3,41.6c0.3-0.5,0.8-0.8,1.4-0.8v0h0.9l-0.3,0.2v2.6c-0.5,0-0.8,0-1.2-0.1c-0.6-0.2-1-0.6-1-1.3
			C52.1,42,52.2,41.8,52.3,41.6 M52.3,43.6c0.8,0.5,1.8,0.5,1.9,0.5l0.2-0.4c0,0.4,0.1,1-0.3,1.2c-0.3,0.2-0.9,0.2-1.2,0.1
			c-0.1,0-0.3-0.1-0.5-0.2l-0.2,0.6c0.4,0.1,0.7,0.2,1.1,0.2c0.6,0,1-0.1,1.2-0.4c0.3-0.3,0.4-0.6,0.4-1.1v-4.1
			c-0.7,0-1.3-0.1-1.9,0.2C51.2,40.9,51.2,42.9,52.3,43.6 M38.3,39.6h-0.6V39h0.6V39.6z M32.2,40.2h0.6v5.5h-0.5l-3.9-4.9l0.3,0.8
			v4.1h-0.6v-5.5h0.6l3.7,4.7l-0.3-0.7V40.2z M9.5,45.7l-2.4-5.5h0.7c0,0.1,1.9,4.6,2.1,5.1l-0.1-0.6l1.9-4.5h0.7L10,45.7H9.5z
			 M19.9,40.2h0.6v5.5h-0.6V40.2z M26.5,42.9c0,1.2-0.9,2.2-2.1,2.2s-2.2-1-2.2-2.3v0c0-1.2,0.9-2.2,2.1-2.2
			C25.6,40.6,26.5,41.6,26.5,42.9L26.5,42.9z M24.4,40.1c-1.7,0-2.8,1.3-2.8,2.8v0c0,1.5,1.1,2.8,2.8,2.8s2.8-1.3,2.8-2.8v0
			C27.2,41.4,26.1,40.1,24.4,40.1 M18.9,44.1L18.9,44.1c0,1-0.8,1.6-1.9,1.6c-0.9,0-1.6-0.3-2.2-0.9l0.4-0.5
			c0.6,0.5,1.1,0.8,1.9,0.8c0.7,0,1.2-0.4,1.2-0.9v0c0-1.5-3.3-0.5-3.3-2.6v0c0-0.9,0.8-1.5,1.8-1.5c0.8,0,1.4,0.2,1.9,0.7l-0.4,0.5
			c-1.2-1-2.7-0.6-2.7,0.3v0c0,0.5,0.3,0.8,1.5,1.1C18.3,42.9,18.9,43.3,18.9,44.1 M13.8,45.6h-0.6v-5.5h0.6V45.6z M49.8,46.2h0.6
			v0.6h-0.6V46.2z M48.7,46.2h0.6v0.6h-0.6V46.2z M12,59.7h5.1v2.5H7.2v-2.3c4.9-4.2,6.7-5,6.7-6.8c0-1.1-0.7-1.7-1.8-1.7
			c-1,0-1.7,0.6-2.7,1.8l-2.1-1.7c1.3-1.8,2.6-2.8,5-2.8c2.8,0,4.6,1.6,4.6,4.1v0c0,3.1-2.4,4.1-6.4,7.4L10,60.7L12,59.7z
			 M55.9,55.6c0,2.3-1.6,4.1-4,4.1c-2.4,0-4-1.9-4-4.2v0c0-2.3,1.6-4.1,4-4.1S55.9,53.3,55.9,55.6L55.9,55.6z M52,48.7
			c-4.1,0-7.1,3.1-7.1,6.9v0c0,3.8,2.9,6.8,7.1,6.8s7.1-3.1,7.1-6.9v0C59,51.8,56.1,48.7,52,48.7"/>
		<path id="XMLID_165_" class="st1" d="M25,47.9l0.7,0.6l-0.6,0.7l-0.7-0.6"/>
		<path id="XMLID_164_" class="st2" d="M26.6,48.5l0.7,0.6l0.6-0.7l-0.7-0.6"/>
		<path id="XMLID_163_" class="st3" d="M25.6,49.4l0.5,0.5l0.5-0.5l-0.5-0.5"/>
		<path id="XMLID_162_" class="st4" d="M27.5,49.7l0.5,0.5l0.5-0.5L28,49.1"/>
		<path id="XMLID_161_" class="st3" d="M24.8,50.2l0.5,0.5l0.5-0.5l-0.5-0.5"/>
		<path id="XMLID_160_" class="st5" d="M26.5,50.2l0.5,0.5l0.5-0.5L27,49.7"/>
		<path id="XMLID_159_" class="st4" d="M25.8,50.8l0.4,0.4l0.4-0.4l-0.4-0.4"/>
		<path id="XMLID_158_" class="st6" d="M27.2,51.1l0.4,0.4l0.4-0.4l-0.4-0.4"/>
		<path id="XMLID_157_" class="st7" d="M30.3,48.3l1.1-0.2l0.2,1.1l-1.1,0.2L30.3,48.3z"/>
		<path id="XMLID_156_" class="st8" d="M28.8,48.8l0.9-0.2l0.2,0.9l-0.9,0.2L28.8,48.8z"/>
		<path id="XMLID_155_" class="st5" d="M30.6,50.1l0.9-0.2l0.2,0.9L30.7,51L30.6,50.1z"/>
		<path id="XMLID_154_" class="st3" d="M29.3,50.2l0.7-0.1l0.1,0.7l-0.7,0.1L29.3,50.2z"/>
		<path id="XMLID_153_" class="st2" d="M30.7,51.6l0.7-0.1l0.1,0.7l-0.7,0.1L30.7,51.6z"/>
		<path id="XMLID_152_" class="st5" d="M28.2,50.5l0.7-0.1l0.1,0.7l-0.7,0.1L28.2,50.5z"/>
		<path id="XMLID_151_" class="st4" d="M29.5,51.4l0.7-0.1l0.1,0.7l-0.7,0.1L29.5,51.4z"/>
		<path id="XMLID_150_" class="st2" d="M28.6,51.5l0.5-0.1l0.1,0.5L28.7,52L28.6,51.5z"/>
		<path id="XMLID_149_" class="st6" d="M29.6,52.6l0.5-0.1l0.1,0.5l-0.5,0.1L29.6,52.6z"/>
		<path id="XMLID_148_" class="st1" d="M33.7,52.1l-0.5,1l1.1,0.5l0.5-1"/>
		<path id="XMLID_147_" class="st5" d="M32.2,51.6l-0.4,0.8l0.8,0.4L33,52"/>
		<path id="XMLID_146_" class="st4" d="M32.9,53.6l-0.4,0.8l0.8,0.4l0.4-0.8"/>
		<path id="XMLID_145_" class="st3" d="M31.8,53l-0.3,0.7l0.7,0.3l0.3-0.7"/>
		<path id="XMLID_144_" class="st3" d="M32.1,54.9l-0.3,0.7l0.7,0.3l0.3-0.7"/>
		<path id="XMLID_143_" class="st7" d="M30.7,52.6l-0.3,0.7l0.7,0.3l0.3-0.7"/>
		<path id="XMLID_142_" class="st2" d="M31.2,54.1l-0.3,0.7l0.7,0.3l0.3-0.7"/>
		<path id="XMLID_141_" class="st4" d="M30.4,53.7l-0.2,0.5l0.5,0.2l0.2-0.5"/>
		<path id="XMLID_140_" class="st5" d="M30.4,55.5l0.2-0.5l0.5,0.2l-0.2,0.5L30.4,55.5z"/>
		<path id="XMLID_139_" class="st7" d="M34.2,57.1l-1,0.6l0.6,1l1-0.6"/>
		<path id="XMLID_138_" class="st5" d="M33.3,55.8l-0.8,0.4l0.4,0.8l0.8-0.4"/>
		<path id="XMLID_137_" class="st5" d="M32.7,57.9l-0.8,0.4l0.4,0.8l0.8-0.4"/>
		<path id="XMLID_136_" class="st1" d="M32.1,56.7l-0.6,0.3l0.3,0.6l0.6-0.3"/>
		<path id="XMLID_135_" class="st6" d="M31.3,58.5l-0.6,0.3l0.3,0.6l0.6-0.3"/>
		<path id="XMLID_134_" class="st8" d="M31.5,55.8l-0.6,0.3l0.3,0.6l0.6-0.3"/>
		<path id="XMLID_133_" class="st3" d="M31,57.3l-0.6,0.3l0.3,0.6l0.6-0.3"/>
		<path id="XMLID_132_" class="st2" d="M30.7,56.5l-0.4,0.2l0.2,0.4l0.4-0.2"/>
		<path id="XMLID_131_" class="st5" d="M30,57.7L29.5,58l0.2,0.4l0.4-0.2"/>
		<path id="XMLID_130_" class="st4" d="M30.5,62.5l0.1-1.2l1.2,0.1l-0.1,1.2L30.5,62.5z"/>
		<path id="XMLID_129_" class="st8" d="M30.7,60.7l0.1-0.9l0.9,0.1l-0.1,0.9L30.7,60.7z"/>
		<path id="XMLID_128_" class="st5" d="M29,62l0.1-0.9l0.9,0.1l-0.1,0.9L29,62z"/>
		<path id="XMLID_127_" class="st4" d="M29.4,60.6l0.1-0.7l0.7,0.1l-0.1,0.7L29.4,60.6z"/>
		<path id="XMLID_126_" class="st2" d="M27.7,61.5l0.1-0.7l0.7,0.1l-0.1,0.7L27.7,61.5z"/>
		<path id="XMLID_125_" class="st2" d="M29.5,59.5l0.1-0.7l0.7,0.1l-0.1,0.7L29.5,59.5z"/>
		<path id="XMLID_124_" class="st4" d="M28.2,60.5l0.1-0.7l0.7,0.1l-0.1,0.7L28.2,60.5z"/>
		<path id="XMLID_123_" class="st2" d="M28.6,59.4l0.1-0.5l0.5,0.1l-0.1,0.5L28.6,59.4z"/>
		<path id="XMLID_122_" class="st2" d="M27.3,60l0.1-0.5l0.5,0.1l-0.1,0.5L27.3,60z"/>
		<path id="XMLID_121_" class="st3" d="M27.2,63.6l-0.9-0.8l-0.8,0.9l0.9,0.8"/>
		<path id="XMLID_120_" class="st4" d="M27,47.3l-0.9-0.8l-0.8,0.9l0.9,0.8"/>
		<path id="XMLID_119_" class="st5" d="M28.1,62.3l-0.7-0.6l-0.6,0.7l0.7,0.6"/>
		<path id="XMLID_118_" class="st4" d="M25.9,62.4l-0.7-0.6l-0.6,0.7l0.7,0.6"/>
		<path id="XMLID_117_" class="st7" d="M26.8,61.5L26.3,61l-0.5,0.5l0.5,0.5"/>
		<path id="XMLID_116_" class="st3" d="M24.9,61.2l-0.5-0.5l-0.5,0.5l0.5,0.5"/>
		<path id="XMLID_115_" class="st3" d="M27.5,60.6L27,60.1l-0.5,0.5l0.5,0.5"/>
		<path id="XMLID_114_" class="st2" d="M25.9,60.7l-0.5-0.5l-0.5,0.5l0.5,0.5"/>
		<path id="XMLID_113_" class="st8" d="M26.6,60l-0.4-0.3l-0.3,0.4l0.4,0.3"/>
		<path id="XMLID_112_" class="st2" d="M25.2,59.8l-0.4-0.3l-0.3,0.4l0.4,0.3"/>
		<path id="XMLID_111_" class="st7" d="M20.8,61.7l1.1-0.2l0.2,1.1L21,62.9L20.8,61.7z"/>
		<path id="XMLID_110_" class="st5" d="M22.6,61.4l0.9-0.2l0.2,0.9l-0.9,0.2L22.6,61.4z"/>
		<path id="XMLID_109_" class="st4" d="M20.8,60.2l0.9-0.2l0.2,0.9L21,61.1L20.8,60.2z"/>
		<path id="XMLID_108_" class="st3" d="M22.3,60.2L23,60l0.1,0.7l-0.7,0.1L22.3,60.2z"/>
		<path id="XMLID_107_" class="st1" d="M23.3,59.9l0.7-0.1l0.1,0.7l-0.7,0.1L23.3,59.9z"/>
		<path id="XMLID_106_" class="st7" d="M22,58.9l0.7-0.1l0.1,0.7l-0.7,0.1L22,58.9z"/>
		<path id="XMLID_105_" class="st4" d="M23.2,59l0.5-0.1l0.1,0.5l-0.5,0.1L23.2,59z"/>
		<path id="XMLID_104_" class="st2" d="M22.2,58l0.5-0.1l0.1,0.5l-0.5,0.1L22.2,58z"/>
		<path id="XMLID_103_" class="st5" d="M18.7,59l0.5-1.1l-1.1-0.5l-0.5,1.1"/>
		<path id="XMLID_102_" class="st3" d="M20.2,59.4l0.4-0.8l-0.8-0.4L19.4,59"/>
		<path id="XMLID_101_" class="st7" d="M19.5,57.4l0.4-0.8L19,56.1L18.6,57"/>
		<path id="XMLID_100_" class="st5" d="M19.9,57.7l0.3-0.7l0.7,0.3L20.6,58L19.9,57.7z"/>
		<path id="XMLID_99_" class="st2" d="M21.5,59.6l0.3-0.7l-0.7-0.3l-0.3,0.7"/>
		<path id="XMLID_98_" class="st1" d="M19.6,55.8l0.3-0.7l0.7,0.3l-0.3,0.7L19.6,55.8z"/>
		<path id="XMLID_97_" class="st6" d="M21,58l0.3-0.7l0.7,0.3l-0.3,0.7L21,58z"/>
		<path id="XMLID_96_" class="st3" d="M20.5,56.5l0.3-0.7l0.7,0.3l-0.3,0.7L20.5,56.5z"/>
		<path id="XMLID_95_" class="st8" d="M21.9,57.3l0.2-0.5l-0.5-0.2l-0.2,0.5"/>
		<path id="XMLID_94_" class="st4" d="M21.7,55.9l0.2-0.5l-0.5-0.2l-0.2,0.5"/>
		<path id="XMLID_93_" class="st5" d="M18.1,53.9l1-0.6l-0.6-1l-1,0.6"/>
		<path id="XMLID_92_" class="st4" d="M19,55.2l0.8-0.5l-0.5-0.8l-0.8,0.5"/>
		<path id="XMLID_91_" class="st8" d="M19.6,53.1l0.8-0.5L20,51.8l-0.8,0.5"/>
		<path id="XMLID_90_" class="st7" d="M20.2,54.2l0.6-0.4l-0.4-0.6l-0.6,0.4"/>
		<path id="XMLID_89_" class="st4" d="M21,52.5l0.6-0.4l-0.4-0.6l-0.6,0.4"/>
		<path id="XMLID_88_" class="st5" d="M20.8,55.2l0.6-0.4l-0.4-0.6l-0.6,0.4"/>
		<path id="XMLID_87_" class="st3" d="M21.3,53.6l0.6-0.4l-0.4-0.6L20.9,53"/>
		<path id="XMLID_86_" class="st2" d="M21.6,54.5l0.4-0.3l-0.3-0.4L21.4,54"/>
		<path id="XMLID_85_" class="st4" d="M22.3,53.2l0.4-0.3l-0.3-0.4l-0.4,0.3"/>
		<path id="XMLID_84_" class="st4" d="M20.5,49.5l0.1-1.2l1.2,0.1l-0.1,1.2L20.5,49.5z"/>
		<path id="XMLID_83_" class="st2" d="M20.5,51.1l0.1-0.9l0.9,0.1l-0.1,0.9L20.5,51.1z"/>
		<path id="XMLID_82_" class="st5" d="M22.2,49.7l0.1-0.9l0.9,0.1l-0.1,0.9L22.2,49.7z"/>
		<path id="XMLID_81_" class="st3" d="M22,51l0.1-0.7l0.7,0.1l-0.1,0.7L22,51z"/>
		<path id="XMLID_80_" class="st7" d="M23.7,50l0.1-0.7l0.7,0.1l-0.1,0.7L23.7,50z"/>
		<path id="XMLID_79_" class="st5" d="M22,52.1l0.1-0.7l0.7,0.1l-0.1,0.7L22,52.1z"/>
		<path id="XMLID_78_" class="st4" d="M23.3,51.1l0.1-0.7l0.7,0.1L24,51.2L23.3,51.1z"/>
		<path id="XMLID_77_" class="st8" d="M23.1,52l0.1-0.5l0.5,0.1l-0.1,0.5L23.1,52z"/>
		<path id="XMLID_76_" class="st2" d="M24.4,51.4l0.1-0.5l0.5,0.1l-0.1,0.5L24.4,51.4z"/>
		<path id="XMLID_75_" class="st9" d="M29.8,56.2c-0.6-0.4-1.5-0.5-2.3-0.1c-0.4,0.1-0.8,0.4-1.1,0.6c-0.2-1.2-0.1-2.4-0.1-3
			c0,0,0,0,0,0c0.4,0.3,0.3,1,0.2,1.3c0,0,0,0,0,0c0.5-0.6,0.3-1.4,0.2-1.5c0,0,0.1,0.1,0.2,0.2c0.4,0.5,0.2,1,0.2,1c0,0,0,0,0,0
			c0.3-0.5,0.2-1.1-0.3-1.6c0,0,0.1,0,0.1,0c0.4,0.2,0.7,0.6,0.7,1c0,0.1,0.3-0.8-0.4-1.2c-0.1-0.1-0.3-0.1-0.4-0.1
			c-0.1,0,0.4-0.1,0.7,0.1c0.2,0.1,0.2,0.3,0.2,0.2c-0.1-0.6-0.7-0.8-1.1-0.6c0,0,0.2-0.3,0.6-0.3c0.1,0,0.1,0,0.2,0c0,0,0,0,0,0
			c-0.3-0.3-0.8-0.3-1.1,0c0,0,0,0,0,0c-0.1-0.2-0.2-0.4-0.2-0.6c0-0.1,0,0.3-0.2,0.6c0,0,0,0,0,0c-0.3-0.4-0.8-0.4-1.1,0
			c0,0,0,0,0,0c0.2-0.1,0.6-0.1,0.8,0.2c0,0,0,0,0,0c-0.4-0.2-1.1,0.1-1.1,0.6c0,0,0,0,0,0c0,0,0.1-0.1,0.2-0.2
			c0.3-0.3,0.9-0.2,0.8-0.2c-0.2,0-0.6,0.2-0.8,0.6c-0.1,0.3,0,0.8,0,0.7c0-0.4,0.2-0.9,0.8-1c0,0,0,0,0,0c-0.8,0.7-0.3,1.7-0.3,1.6
			c0-0.3,0-0.8,0.4-1.2c0,0,0,0,0,0c-0.1,0.2-0.4,0.9,0.2,1.5c0,0,0,0,0,0c-0.1-0.2-0.2-1,0.2-1.3c0,0,0,0,0,0c0,0.6,0.1,1.7-0.1,3
			c-0.7-0.5-1.4-0.9-2.3-0.8c-0.4,0-0.9,0.1-1.2,0.3c0,0,0,0,0,0c1.3-0.4,2.4,0.1,3.4,0.9c-0.5,0.5-1,0.9-1.3,1.1
			c-0.1-0.1-0.2-0.1-0.3-0.1c-0.2,0.1-0.3,0.3-0.2,0.5c0.5,0.4,1.2-0.4,2-1.2c0.8,0.7,1.5,1.6,2,1.2c0,0,0.1-0.2,0.1-0.2
			c-0.1-0.2-0.4-0.3-0.5-0.1c-0.3-0.1-0.7-0.6-1.3-1.1C27.5,56.3,28.6,55.8,29.8,56.2C29.9,56.2,29.9,56.2,29.8,56.2"/>
		<path id="XMLID_46_" class="st0" d="M25.7,68.5h0.3v-3h-0.3V68.5z M17,68.1l-0.5-1.3c0.5-0.5,1.2-0.4,1.6,0l-0.5,1.3H17z
			 M15.2,68.1c-0.3,0-0.4,0-0.7-0.1c-0.9-0.3-0.7-1.5,0.4-1.5h0.3V68.1z M24.4,68.1c-0.5,0-1,0.1-1.3-0.3c0-0.2,0-0.4,0-1.4h-0.3
			v1.1c0,0.8-1,0.8-1.2,0.3c-0.1-0.2,0-0.3-0.1-1.4h-0.3v1.2c0,0.4-0.2,0.6-0.6,0.6H20v-1.7h-0.3v1.7h-1.8l0.6-1.4
			c-0.3-0.3-0.8-0.6-1.2-0.6c-0.4,0-0.9,0.3-1.2,0.6l0.6,1.4h-1.2v-1.9H15c-0.8,0-1.4,0.4-1.4,1.1c0,1.3,1.6,1.1,1.6,1.1
			c0,0,0,0.3-0.2,0.5c-0.2,0.1-0.5,0.1-0.7,0.1c-0.1,0-0.2-0.1-0.3-0.1l-0.1,0.3c0.2,0.1,0.4,0.1,0.6,0.1c0.6,0,0.9-0.3,0.9-0.9
			v-0.1c5.5,0,5.3,0.1,5.6-0.1c0.1-0.1,0.2-0.2,0.3-0.3c0.1,0.1,0.2,0.2,0.3,0.3c0.3,0.2,0.7,0.1,1,0c0.1-0.1,0.2-0.2,0.3-0.3
			c0.1,0.2,0.3,0.4,0.7,0.4v0h1v-3h-0.3V68.1z M54.4,68c-0.3,0.7-1.3,0.7-1.6,0c-0.1-0.2-0.1-0.5,0-0.7c0.4-0.9,1.7-0.6,1.7,0.3
			C54.5,67.8,54.5,67.9,54.4,68 M51.2,68c-0.3,0.6-1,0.7-1.4,0.3c-0.3-0.3-0.3-0.9,0-1.2c0.3-0.3,0.7-0.3,1-0.2
			C51.2,67,51.4,67.6,51.2,68 M43,68.1c-0.3,0-0.4,0-0.7-0.1c-0.9-0.3-0.7-1.5,0.4-1.5H43L43,68.1L43,68.1z M55.9,68.1h-1.1
			c0.4-0.8-0.2-1.7-1.1-1.7c-0.8,0-1.4,0.9-1.1,1.7h-1c0.3-0.8-0.2-1.7-1.1-1.7c-0.8,0-1.4,0.9-1.1,1.7h-1.1v-2.7h-0.3v2.7h-1.1
			c0-0.3,0.1-0.8-0.2-1.2c-0.2-0.2-0.4-0.3-0.7-0.3h-1.5l0.6-1.2h-0.4L44,66.7c0,0.1,0.1,0.2,0.2,0.3c1.7,0,1.8,0,2,0
			c0.2,0.1,0.2,0.2,0.3,0.3c0,0.2,0,0.3,0,0.8h-3.1v-1.9h-0.5c-0.9,0-1.4,0.5-1.4,1.1c0,0.8,0.6,1.1,1.4,1.1h6.6
			c0.5,0.5,1.3,0.5,1.8,0h1.5c0.5,0.5,1.3,0.5,1.8,0h1.7v-3h-0.3L55.9,68.1L55.9,68.1z M57.2,68.5h0.3v-3h-0.3V68.5z M32.6,69.2h0.3
			v-0.3h-0.3V69.2z M35.8,68.1l-0.5-1.3c0.5-0.5,1.2-0.4,1.6,0l-0.5,1.3H35.8z M38.2,68.1h-1.4l0.6-1.4c-0.3-0.3-0.8-0.6-1.2-0.6
			c-0.5,0-0.9,0.3-1.2,0.6l0.6,1.4h-1.2v-1.9h-0.3v2.3c0,0.3,0,0.5-0.3,0.5c-0.1,0-0.1,0-0.2,0l-0.1,0.3c0.3,0.1,0.6,0.1,0.8-0.2
			c0.1-0.2,0.1-0.5,0.1-0.7h4.3v-3h-0.3L38.2,68.1L38.2,68.1z M12.8,66.5c-0.4-0.4-0.8-0.3-0.9-0.3v0.3c0.2,0,0.4,0,0.5,0.1
			c0.1,0.1,0.2,0.2,0.3,0.3c0,0.2,0,0.3,0,1.2h-1.6v0.3H13c0-1.3,0-1.4-0.1-1.7C13,66.7,12.9,66.6,12.8,66.5 M31.3,69.2h0.3v-0.3
			h-0.3V69.2z M29.3,68.1c-0.3,0-0.4,0-0.7-0.1c-0.9-0.3-0.7-1.5,0.4-1.5h0.3V68.1z M32.9,66.2h-0.3v1.9h-1.3v-1.9H31v1.9h-1.3v-1.9
			c-0.4,0-1-0.1-1.5,0.3c-0.7,0.6-0.5,1.9,1,1.9h3.8V66.2z M30.7,69.2h0.3v-0.3h-0.3V69.2z M8.4,65.5H8.1v0.3h0.3V65.5z M42.8,65.5
			h-0.3v0.3h0.3V65.5z M29.6,65.5h-0.3v0.3h0.3V65.5z M10.4,69.2h0.3v-0.3h-0.3V69.2z M29,65.5h-0.3v0.3H29V65.5z M9,65.5H8.7v0.3H9
			V65.5z M9.8,69.2h0.3v-0.3H9.8V69.2z M8.7,68.1c-0.3,0-0.4,0-0.7-0.1c-0.9-0.3-0.7-1.5,0.4-1.5h0.3V68.1z M10.7,66.2h-0.3v1.9H9
			v-1.9c-0.4,0-0.7,0-1.1,0.1c-0.3,0.1-0.6,0.3-0.7,0.6c-0.1,0.3-0.1,0.7,0,1c0.2,0.5,0.7,0.6,1.3,0.6h2.2V66.2z M39.5,68.5h0.3v-3
			h-0.3V68.5z M43.4,65.5H43v0.3h0.3V65.5z"/>
		<path id="XMLID_45_" class="st0" d="M7.4,70.7h0.4v1.2L9,70.7h0.5l-1,1l1,1.4H9L8.2,72l-0.4,0.4V73H7.4"/>
		<path id="XMLID_44_" class="st0" d="M9.9,70.7h0.4V73H9.9V70.7z"/>
		<path id="XMLID_43_" class="st0" d="M11,70.7h0.4l1.3,1.6v-1.6h0.4V73h-0.4l-1.3-1.7V73H11"/>
		<path id="XMLID_42_" class="st0" d="M13.6,71.9L13.6,71.9c0-0.7,0.5-1.2,1.2-1.2c0.4,0,0.7,0.1,0.9,0.3l-0.3,0.3
			c-0.6-0.5-1.4-0.2-1.4,0.6v0c0,0.5,0.3,0.9,0.8,0.9c0.2,0,0.4-0.1,0.6-0.2v-0.4h-0.6v-0.4h1v1C15,73.4,13.6,73.1,13.6,71.9"/>
		<path id="XMLID_39_" class="st0" d="M17.3,72.7c1.1,0,1.1-1.6,0-1.6h-0.5v1.6H17.3z M16.4,70.7h0.9c1.7,0,1.7,2.4,0,2.4h-0.9V70.7
			z"/>
		<path id="XMLID_36_" class="st0" d="M21,71.9L21,71.9c0-0.5-0.3-0.9-0.8-0.9c-0.5,0-0.8,0.4-0.8,0.8v0c0,0.5,0.3,0.8,0.8,0.8
			C20.7,72.7,21,72.3,21,71.9 M19,71.9L19,71.9c0-0.7,0.5-1.2,1.3-1.2c0.7,0,1.2,0.6,1.2,1.2v0c0,0.7-0.5,1.2-1.3,1.2
			C19.5,73.1,19,72.5,19,71.9"/>
		<path id="XMLID_35_" class="st0" d="M22,70.7h0.4l0.7,1.1l0.7-1.1h0.4V73h-0.4v-1.7l-0.8,1.1h0l-0.7-1.1V73H22"/>
		<path id="XMLID_32_" class="st0" d="M27.9,71.9L27.9,71.9c0-0.5-0.3-0.9-0.8-0.9c-0.5,0-0.8,0.4-0.8,0.8v0c0,0.5,0.3,0.8,0.8,0.8
			C27.6,72.7,27.9,72.3,27.9,71.9 M25.8,71.9L25.8,71.9c0-0.7,0.5-1.2,1.3-1.2c0.7,0,1.2,0.6,1.2,1.2v0c0,0.7-0.5,1.2-1.3,1.2
			C26.4,73.1,25.8,72.5,25.8,71.9"/>
		<path id="XMLID_31_" class="st0" d="M28.9,70.7h1.8V71h-1.4v0.6h1.2v0.4h-1.2v1h-0.4"/>
		<path id="XMLID_30_" class="st0" d="M32,72.7l0.3-0.3c0.2,0.2,0.5,0.3,0.8,0.3c0.3,0,0.4-0.1,0.4-0.3v0c0-0.5-1.3-0.2-1.3-1.1v0
			c0-0.7,1-0.9,1.7-0.4l-0.2,0.3c-0.5-0.4-1-0.2-1,0v0c0,0.5,1.3,0.2,1.3,1.1v0C33.8,73.2,32.6,73.3,32,72.7"/>
		<path id="XMLID_27_" class="st0" d="M35.7,72.1l-0.4-1l-0.4,1H35.7z M35.1,70.6h0.4l1,2.4h-0.4l-0.2-0.6h-1.1L34.5,73H34
			L35.1,70.6z"/>
		<path id="XMLID_26_" class="st0" d="M36.8,72v-1.4h0.4V72c0,0.4,0.2,0.7,0.6,0.7c0.4,0,0.6-0.2,0.6-0.7v-1.4h0.4V72
			c0,0.7-0.4,1.1-1,1.1C37.2,73.1,36.8,72.7,36.8,72"/>
		<path id="XMLID_23_" class="st0" d="M40.3,72.7c1.1,0,1.1-1.6,0-1.6h-0.5v1.6H40.3z M39.4,70.7h0.9c1.7,0,1.7,2.4,0,2.4h-0.9V70.7
			z"/>
		<path id="XMLID_22_" class="st0" d="M42.1,70.7h0.4V73h-0.4V70.7z"/>
		<path id="XMLID_19_" class="st0" d="M45.6,72.1l-0.4-1l-0.4,1H45.6z M45,70.6h0.4l1,2.4H46l-0.2-0.6h-1.1L44.4,73H44L45,70.6z"/>
		<path id="XMLID_16_" class="st0" d="M47.9,71.8c0.3,0,0.5-0.2,0.5-0.4v0c0-0.3-0.2-0.4-0.5-0.4h-0.6v0.8H47.9z M46.9,70.7h1.1
			c0.5,0,0.9,0.3,0.9,0.8c0,0,0,0.6-0.6,0.7l0.6,0.9h-0.5l-0.6-0.8c0,0-0.6,0-0.5,0V73h-0.4V70.7z"/>
		<path id="XMLID_13_" class="st0" d="M50.9,72.1l-0.4-1l-0.4,1H50.9z M50.3,70.6h0.4l1,2.4h-0.4L51,72.5h-1.1L49.6,73h-0.4
			L50.3,70.6z"/>
		<path id="XMLID_9_" class="st0" d="M53.2,72.7c0.3,0,0.5-0.1,0.5-0.3v0c0-0.2-0.2-0.3-0.5-0.3h-0.7v0.7H53.2z M53.1,71.7
			c0.3,0,0.4-0.1,0.4-0.3v0c0-0.2-0.1-0.3-0.4-0.3h-0.6v0.6H53.1z M52.1,70.7h1.1c0.4,0,0.8,0.2,0.8,0.6c0,0,0,0.3-0.3,0.5
			c0.3,0.1,0.5,0.3,0.5,0.6v0c0,0.4-0.4,0.7-0.9,0.7h-1.1V70.7z"/>
		<path id="XMLID_8_" class="st0" d="M54.6,70.7H55V73h-0.4V70.7z"/>
		<path id="XMLID_5_" class="st0" d="M57.1,72.1l-0.4-1l-0.4,1H57.1z M56.5,70.6h0.4l1,2.4h-0.4l-0.2-0.6h-1.1L55.9,73h-0.4
			L56.5,70.6z"/>
	</g>
	<rect id="XMLID_2_" x="79" y="38.4" class="st10" width="0.9" height="35.5"/>
</g>
<g id="XMLID_319_">
	<g id="XMLID_321_">
		<g id="XMLID_355_">
			<g id="XMLID_356_">
				<path id="XMLID_317_" class="st11" d="M105.8,65.1l-1.3-0.3c-0.5-0.1-0.9-0.2-1.1-0.4c-0.2-0.1-0.3-0.3-0.3-0.6
					c0-0.2,0-0.3,0.1-0.4c0.1-0.1,0.1-0.2,0.3-0.3c0.1-0.1,0.3-0.2,0.5-0.2c0.5-0.1,1.2-0.1,1.8,0c0.3,0.1,0.5,0.1,0.8,0.2
					c0.2,0.1,0.4,0.2,0.5,0.3c0.1,0.1,0.2,0.2,0.3,0.2l0.1,0.1l0.1-0.1c0.1-0.1,0.2-0.2,0.4-0.4c0.1-0.2,0.2-0.4,0.2-0.6
					c0-0.2-0.1-0.3-0.2-0.5c-0.1-0.1-0.2-0.2-0.4-0.3c-0.1,0-0.2-0.1-0.3-0.2c-0.1-0.1-0.3-0.1-0.6-0.2c-0.2-0.1-0.5-0.1-0.8-0.2
					c-0.3,0-0.7-0.1-1.1-0.1c-0.6,0-1.1,0.1-1.6,0.2c-0.4,0.1-0.8,0.3-1.1,0.6c-0.3,0.2-0.5,0.5-0.6,0.9c-0.1,0.3-0.2,0.7-0.2,1
					c0,0.4,0.1,0.7,0.2,1c0.2,0.3,0.4,0.5,0.6,0.7c0.3,0.2,0.5,0.3,0.9,0.5c0.3,0.1,0.7,0.2,1,0.3l1.3,0.2c0.2,0,0.4,0.1,0.6,0.1
					c0.2,0.1,0.3,0.1,0.4,0.2c0.1,0.1,0.2,0.2,0.2,0.3c0.1,0.1,0.1,0.2,0.1,0.4c0,0.3-0.1,0.6-0.4,0.7c-0.3,0.2-0.7,0.3-1.4,0.3
					c-0.4,0-0.7,0-1-0.1c-0.3-0.1-0.6-0.1-0.9-0.2c-0.3-0.1-0.5-0.2-0.6-0.3c-0.2-0.1-0.3-0.2-0.4-0.2l-0.1-0.1l-0.8,1.4l0.1,0.1
					c0.1,0.1,0.3,0.2,0.5,0.3c0.2,0.1,0.5,0.2,0.8,0.3c0.3,0.1,0.7,0.2,1.1,0.3c0.4,0.1,0.9,0.1,1.3,0.1c0.6,0,1.1-0.1,1.5-0.2
					c0.5-0.1,0.8-0.3,1.1-0.5c0.3-0.2,0.5-0.5,0.7-0.9c0.2-0.3,0.2-0.7,0.2-1.1c0-0.7-0.2-1.3-0.7-1.7
					C107.3,65.6,106.7,65.3,105.8,65.1z"/>
				<path id="XMLID_389_" class="st11" d="M117.6,62.7c-0.4-0.4-0.9-0.7-1.4-0.9c-1.1-0.5-2.5-0.5-3.6,0c-0.5,0.2-1,0.5-1.4,0.9
					c-0.4,0.4-0.7,0.9-1,1.4c-0.2,0.5-0.3,1.1-0.3,1.8c0,0.6,0.1,1.2,0.3,1.8c0.2,0.5,0.6,1,1,1.4c0.4,0.4,0.9,0.7,1.4,0.9
					c0.5,0.2,1.1,0.3,1.8,0.3s1.2-0.1,1.8-0.3c0.5-0.2,1-0.5,1.4-0.9c0.4-0.4,0.7-0.9,1-1.4c0.2-0.5,0.3-1.1,0.3-1.8
					s-0.1-1.2-0.3-1.8C118.3,63.6,118,63.1,117.6,62.7z M117.1,65.9c0,0.4-0.1,0.8-0.2,1.1c-0.1,0.3-0.3,0.6-0.6,0.9
					c-0.2,0.2-0.5,0.4-0.9,0.6c-0.7,0.3-1.5,0.3-2.2,0c-0.3-0.1-0.6-0.3-0.9-0.6c-0.2-0.3-0.4-0.6-0.6-0.9c-0.1-0.3-0.2-0.7-0.2-1.1
					c0-0.4,0.1-0.8,0.2-1.2c0.1-0.3,0.3-0.7,0.6-0.9c0.2-0.3,0.5-0.4,0.9-0.6c0.3-0.1,0.7-0.2,1.1-0.2s0.8,0.1,1.1,0.2
					c0.3,0.1,0.6,0.3,0.9,0.6c0.2,0.2,0.4,0.6,0.6,0.9C117,65.1,117.1,65.5,117.1,65.9z"/>
				<path id="XMLID_314_" class="st11" d="M126.9,68.1l-0.1,0.1c-0.2,0.1-0.4,0.2-0.8,0.3c-0.3,0.1-0.8,0.2-1.2,0.2
					c-0.4,0-0.8-0.1-1.1-0.2c-0.3-0.1-0.6-0.3-0.9-0.5c-0.3-0.2-0.5-0.5-0.6-0.9c-0.1-0.3-0.2-0.8-0.2-1.2c0-0.5,0.1-0.9,0.2-1.2
					c0.1-0.4,0.3-0.7,0.6-0.9c0.2-0.2,0.5-0.4,0.8-0.6c0.6-0.2,1.3-0.2,1.8-0.1c0.2,0.1,0.4,0.1,0.6,0.2c0.2,0.1,0.3,0.2,0.5,0.3
					c0.1,0.1,0.2,0.2,0.3,0.3l0.1,0.1l0.1-0.1c0.1,0,0.1-0.1,0.2-0.1c0.1-0.1,0.1-0.1,0.2-0.2c0.1-0.1,0.1-0.2,0.2-0.3
					c0.1-0.1,0.1-0.2,0.1-0.4c0-0.1,0-0.3-0.1-0.4c-0.1-0.2-0.3-0.3-0.5-0.5c-0.2-0.1-0.5-0.3-0.9-0.4c-0.4-0.1-0.9-0.1-1.4-0.1
					c-0.6,0-1.2,0.1-1.7,0.3c-0.5,0.2-1,0.5-1.4,0.9c-0.4,0.4-0.7,0.9-1,1.4c-0.2,0.6-0.4,1.2-0.4,1.9c0,0.7,0.1,1.4,0.4,1.9
					c0.2,0.6,0.6,1,1,1.4c0.4,0.4,0.9,0.7,1.4,0.8c0.5,0.2,1.1,0.3,1.7,0.3c0.4,0,0.8,0,1.1-0.1c0.3-0.1,0.6-0.1,0.9-0.2
					c0.2-0.1,0.4-0.2,0.6-0.3c0.2-0.1,0.3-0.2,0.4-0.2l0.1-0.1L126.9,68.1z"/>
				<path id="XMLID_313_" class="st11" d="M130.2,61.7c-0.1,0-0.3-0.1-0.5-0.1c-0.3,0-0.5,0.1-0.7,0.2c-0.2,0.1-0.3,0.3-0.3,0.6v7.7
					h1.7v-8.3l-0.1,0C130.4,61.8,130.3,61.7,130.2,61.7z"/>
				<path id="XMLID_384_" class="st11" d="M140.3,69c-0.2-0.4-0.3-0.9-0.6-1.4c-0.2-0.5-0.4-1.1-0.7-1.7c-0.2-0.6-0.5-1.2-0.7-1.7
					c-0.2-0.5-0.5-1-0.7-1.5c-0.2-0.4-0.4-0.8-0.5-1l0,0c0,0,0,0-0.1-0.1c-0.1,0-0.1-0.1-0.2-0.1c-0.1,0-0.2-0.1-0.3-0.1
					c-0.1,0-0.2,0-0.3,0c-0.3,0-0.6,0.1-0.8,0.2c-0.2,0.1-0.4,0.4-0.5,0.7c-0.3,0.6-0.6,1.3-0.9,2c-0.3,0.7-0.6,1.3-0.8,2
					c-0.3,0.6-0.5,1.3-0.8,1.9c-0.2,0.6-0.5,1.2-0.7,1.7l-0.1,0.2h1.8l0-0.1c0.1-0.2,0.2-0.6,0.3-0.9c0.1-0.3,0.3-0.7,0.4-1.1h3.8
					c0.1,0.1,0.1,0.3,0.2,0.4c0.1,0.2,0.2,0.4,0.2,0.6l0.2,0.6c0.1,0.2,0.1,0.3,0.2,0.4l0,0.1h1.9l-0.1-0.2
					C140.5,69.7,140.4,69.4,140.3,69z M137.3,66.4h-2.5c0.1-0.2,0.2-0.5,0.3-0.7c0.1-0.3,0.3-0.6,0.4-1c0.1-0.3,0.3-0.6,0.4-0.9
					c0.1-0.2,0.1-0.3,0.2-0.4c0,0.1,0.1,0.2,0.1,0.3c0.1,0.3,0.3,0.6,0.4,0.9c0.1,0.3,0.3,0.7,0.4,1
					C137.1,65.9,137.2,66.2,137.3,66.4z"/>
				<path id="XMLID_310_" class="st11" d="M143.4,61.8l-0.1,0c0,0-0.1,0-0.3-0.1c-0.1,0-0.3-0.1-0.5-0.1c-0.3,0-0.5,0.1-0.7,0.2
					c-0.2,0.1-0.3,0.3-0.3,0.6v7.7h6v-1.6h-4.2V61.8z"/>
				<path id="XMLID_380_" class="st11" d="M158.7,62.7c-0.4-0.4-1-0.7-1.6-0.9c-0.6-0.2-1.3-0.3-2.1-0.3c-0.5,0-1,0-1.3,0
					c-0.4,0-0.6,0.1-0.8,0.1c-0.2,0.1-0.4,0.2-0.5,0.3c-0.1,0.1-0.1,0.3-0.1,0.6v7.5l0.1,0c0,0,0.1,0,0.7,0.1c0.4,0,1,0.1,1.9,0.1
					c0.8,0,1.5-0.1,2.2-0.3c0.6-0.2,1.2-0.5,1.6-0.9c0.4-0.4,0.8-0.8,1-1.4c0.2-0.5,0.3-1.2,0.3-1.8c0-0.7-0.1-1.3-0.3-1.8
					C159.4,63.5,159.1,63,158.7,62.7z M158.2,65.9c0,0.9-0.3,1.6-0.8,2.1c-0.5,0.5-1.3,0.7-2.4,0.7c-0.4,0-0.7,0-0.9,0
					c-0.1,0-0.2,0-0.2,0v-5.5c0.1,0,0.1,0,0.2,0c0.2,0,0.5,0,0.9,0c0.6,0,1,0.1,1.4,0.2c0.4,0.1,0.7,0.3,1,0.6
					c0.3,0.2,0.4,0.5,0.6,0.9C158.1,65.1,158.2,65.4,158.2,65.9z"/>
				<path id="XMLID_307_" class="st11" d="M167.8,63.2L167.8,63.2c0.1-0.1,0.1-0.2,0.2-0.3c0.1-0.1,0.1-0.3,0.1-0.5
					c0-0.5-0.3-0.8-0.9-0.8h-4.6c-0.7,0-1,0.3-1,1v7.5h6.4v-1.6h-4.7v-1.9h4.3l0-0.1c0-0.1,0.1-0.1,0.1-0.3c0.1-0.1,0.1-0.3,0.1-0.5
					c0-0.5-0.3-0.8-0.9-0.8h-3.7v-1.7H167.8z"/>
				<path id="XMLID_306_" class="st11" d="M177,61.7c-0.2-0.1-0.4-0.1-0.6-0.1c-0.3,0-0.5,0.1-0.7,0.2c-0.1,0.1-0.3,0.3-0.4,0.7
					c-0.2,0.4-0.4,0.9-0.6,1.4c-0.2,0.5-0.4,1.1-0.6,1.6c-0.2,0.5-0.4,1.1-0.6,1.6c-0.2,0.4-0.3,0.7-0.4,1c-0.2-0.4-0.4-0.8-0.6-1.3
					c-0.2-0.6-0.5-1.2-0.7-1.8c-0.2-0.6-0.5-1.2-0.7-1.7c-0.2-0.6-0.4-1-0.5-1.4l0-0.1l-0.1,0c0,0-0.1,0-0.2-0.1
					c-0.1-0.1-0.3-0.1-0.5-0.1c-0.3,0-0.5,0.1-0.6,0.2c-0.1,0.1-0.2,0.3-0.2,0.6c0,0.2,0,0.4,0.1,0.6c0.1,0.2,0.1,0.4,0.2,0.6
					c0,0.1,0.1,0.3,0.2,0.6c0.1,0.3,0.2,0.6,0.4,0.9c0.1,0.4,0.3,0.7,0.5,1.2c0.2,0.4,0.4,0.8,0.6,1.3c0.2,0.4,0.4,0.9,0.6,1.3
					c0.2,0.4,0.4,0.9,0.6,1.3l0,0.1h1.8l0-0.1c0.2-0.4,0.4-0.8,0.6-1.3c0.2-0.5,0.4-1,0.7-1.5s0.5-1.1,0.7-1.6
					c0.2-0.5,0.4-1,0.6-1.5c0.2-0.5,0.4-0.9,0.5-1.2c0.1-0.4,0.2-0.6,0.3-0.8l0-0.1l-0.1-0.1C177.2,61.9,177.1,61.8,177,61.7z"/>
				<path id="XMLID_305_" class="st11" d="M184.6,63.2L184.6,63.2c0.1-0.1,0.1-0.2,0.2-0.3c0.1-0.1,0.1-0.3,0.1-0.5
					c0-0.5-0.3-0.8-0.9-0.8h-4.6c-0.7,0-1,0.3-1,1v7.5h6.4v-1.6h-4.7v-1.9h4.3l0-0.1c0-0.1,0.1-0.1,0.1-0.3c0.1-0.1,0.1-0.3,0.1-0.5
					c0-0.5-0.3-0.8-0.9-0.8h-3.7v-1.7H184.6z"/>
				<path id="XMLID_304_" class="st11" d="M188.2,61.8l-0.1,0c0,0-0.1,0-0.3-0.1c-0.1,0-0.3-0.1-0.5-0.1c-0.3,0-0.5,0.1-0.7,0.2
					c-0.2,0.1-0.3,0.3-0.3,0.6v7.7h6v-1.6h-4.2V61.8z"/>
				<path id="XMLID_373_" class="st11" d="M200.5,62.7c-0.4-0.4-0.9-0.7-1.4-0.9c-1.1-0.5-2.5-0.5-3.6,0c-0.5,0.2-1,0.5-1.4,0.9
					c-0.4,0.4-0.7,0.9-1,1.4c-0.2,0.5-0.3,1.1-0.3,1.8c0,0.6,0.1,1.2,0.3,1.8c0.2,0.5,0.6,1,1,1.4c0.4,0.4,0.9,0.7,1.4,0.9
					c0.5,0.2,1.1,0.3,1.8,0.3s1.2-0.1,1.8-0.3c0.5-0.2,1-0.5,1.4-0.9c0.4-0.4,0.7-0.9,1-1.4c0.2-0.5,0.3-1.1,0.3-1.8
					s-0.1-1.2-0.3-1.8C201.2,63.6,200.9,63.1,200.5,62.7z M200,65.9c0,0.4-0.1,0.8-0.2,1.1c-0.1,0.3-0.3,0.6-0.6,0.9
					c-0.2,0.2-0.5,0.4-0.9,0.6c-0.7,0.3-1.5,0.3-2.2,0c-0.3-0.1-0.6-0.3-0.9-0.6c-0.2-0.3-0.4-0.6-0.6-0.9c-0.1-0.3-0.2-0.7-0.2-1.1
					c0-0.4,0.1-0.8,0.2-1.2c0.1-0.3,0.3-0.7,0.6-0.9c0.2-0.3,0.5-0.4,0.9-0.6c0.3-0.1,0.7-0.2,1.1-0.2c0.4,0,0.8,0.1,1.1,0.2
					c0.3,0.1,0.6,0.3,0.9,0.6c0.2,0.2,0.4,0.6,0.6,0.9C199.9,65.1,200,65.5,200,65.9z"/>
				<path id="XMLID_370_" class="st11" d="M209.2,62.3c-0.6-0.5-1.6-0.8-2.9-0.8c-0.6,0-1.1,0-1.4,0c-0.4,0-0.6,0.1-0.7,0.1
					c-0.2,0-0.4,0.1-0.5,0.3c-0.2,0.1-0.2,0.4-0.2,0.7v7.6h1.7v-2.9c0,0,0,0,0,0c0.1,0,0.2,0,0.4,0c0.1,0,0.3,0,0.5,0
					c0.9,0.1,1.7,0,2.2-0.2c0.5-0.1,0.9-0.4,1.2-0.6c0.3-0.3,0.5-0.6,0.7-0.9c0.1-0.4,0.2-0.7,0.2-1.2
					C210.2,63.5,209.9,62.8,209.2,62.3z M208.4,64.4c0,0.2,0,0.4-0.1,0.5c-0.1,0.2-0.2,0.3-0.3,0.4c-0.2,0.1-0.4,0.2-0.6,0.3
					c-0.3,0.1-0.6,0.1-1.1,0.1c-0.4,0-0.7,0-1-0.1l-0.3,0c0,0,0,0-0.1,0v-2.6c0.1,0,0.2,0,0.3,0c0.2,0,0.5,0,0.9,0
					c0.5,0,0.8,0,1.1,0.1c0.3,0.1,0.5,0.2,0.7,0.3c0.2,0.1,0.3,0.3,0.3,0.4C208.4,64.1,208.4,64.2,208.4,64.4z"/>
				<path id="XMLID_299_" class="st11" d="M221,69c0-0.4,0-0.9-0.1-1.4c0-0.5-0.1-1-0.1-1.6l-0.2-3c0-0.4,0-0.7-0.1-1l0-0.1l0,0
					c0,0-0.1-0.1-0.4-0.2c-0.2-0.1-0.4-0.1-0.6-0.1c-0.3,0-0.5,0.1-0.7,0.2c-0.2,0.1-0.3,0.3-0.5,0.6c-0.1,0.2-0.2,0.5-0.4,0.8
					l-0.6,1.2c-0.2,0.4-0.4,0.8-0.6,1.2c-0.1,0.3-0.3,0.5-0.4,0.7c-0.1-0.2-0.3-0.5-0.4-0.8c-0.2-0.4-0.5-0.9-0.7-1.4l-1.1-2.2l0,0
					c-0.1-0.1-0.2-0.2-0.4-0.2c-0.2-0.1-0.4-0.1-0.7-0.1c-0.3,0-0.5,0.1-0.7,0.2c-0.2,0.1-0.3,0.4-0.4,0.7c0,0.2,0,0.5-0.1,0.9
					c0,0.4,0,0.8-0.1,1.3c0,0.5-0.1,1-0.1,1.5c0,0.5-0.1,1-0.1,1.5c0,0.5-0.1,0.9-0.1,1.3c0,0.4,0,0.7,0,0.9l0,0.2h1.7l0-0.2
					c0-0.2,0-0.4,0-0.8l0.1-1.1c0-0.4,0-0.8,0.1-1.2c0-0.4,0-0.8,0.1-1.2c0-0.4,0-0.7,0.1-1.1c0-0.1,0-0.1,0-0.2
					c0.1,0.2,0.2,0.4,0.3,0.6c0.2,0.4,0.4,0.8,0.6,1.3c0.2,0.4,0.4,0.8,0.6,1.2c0.2,0.4,0.3,0.7,0.4,0.9l0,0.1h1.4l0-0.1
					c0.1-0.1,0.2-0.3,0.3-0.6c0.1-0.2,0.2-0.5,0.4-0.8c0.1-0.3,0.3-0.6,0.4-0.9l0.4-0.9c0.1-0.3,0.3-0.5,0.4-0.8l0,0l0.1,1.1
					c0,0.4,0,0.8,0.1,1.3c0,0.5,0,0.9,0.1,1.3c0,0.4,0,0.8,0.1,1.1c0,0.3,0,0.5,0,0.7l0,0.2h1.7l0-0.2C221,69.7,221,69.4,221,69z"/>
				<path id="XMLID_298_" class="st11" d="M229.1,63.2L229.1,63.2c0.1-0.1,0.1-0.2,0.2-0.3c0.1-0.1,0.1-0.3,0.1-0.5
					c0-0.5-0.3-0.8-0.9-0.8h-4.6c-0.7,0-1,0.3-1,1v7.5h6.4v-1.6h-4.7v-1.9h4.3l0-0.1c0-0.1,0.1-0.1,0.1-0.3c0.1-0.1,0.1-0.3,0.1-0.5
					c0-0.5-0.3-0.8-0.9-0.8h-3.7v-1.7H229.1z"/>
				<path id="XMLID_297_" class="st11" d="M238,61.7c-0.1,0-0.3-0.1-0.5-0.1c-0.3,0-0.5,0.1-0.6,0.2c-0.2,0.1-0.2,0.3-0.2,0.6v4.7
					c-0.1-0.2-0.2-0.3-0.3-0.5c-0.2-0.4-0.5-0.7-0.7-1.1l-0.8-1.2c-0.3-0.4-0.5-0.7-0.8-1.1c-0.2-0.3-0.4-0.6-0.6-0.9
					c-0.2-0.2-0.3-0.4-0.4-0.5l0,0c-0.1,0-0.2-0.1-0.3-0.2c-0.2-0.1-0.4-0.1-0.6-0.1c-0.3,0-0.5,0.1-0.7,0.2
					c-0.2,0.1-0.3,0.4-0.3,0.7v7.6h1.7v-5.8c0.1,0.2,0.3,0.4,0.4,0.5c0.3,0.4,0.5,0.7,0.8,1.1l1.5,2.3c0.2,0.4,0.5,0.7,0.7,1
					l0.6,0.9h1.7v-8.3l-0.1,0C238.2,61.8,238.1,61.7,238,61.7z"/>
				<path id="XMLID_296_" class="st11" d="M246.6,61.6h-6.9l0,0.1c0,0-0.1,0.1-0.1,0.3c-0.1,0.1-0.1,0.3-0.1,0.5
					c0,0.5,0.3,0.8,0.9,0.8h2.2v6.9h1.7v-6.9h2.9l0-0.1c0-0.1,0.1-0.1,0.1-0.3c0-0.1,0.1-0.3,0.1-0.5
					C247.4,61.9,247.1,61.6,246.6,61.6z"/>
				<path id="XMLID_362_" class="st11" d="M258,65.7c0,0,0.1-0.1,0.1-0.1c0.1-0.1,0.3-0.2,0.4-0.4c0.1-0.2,0.2-0.3,0.3-0.5
					c0.1-0.2,0.1-0.5,0.1-0.7c0-0.3-0.1-0.6-0.2-0.9c-0.1-0.3-0.3-0.6-0.6-0.8c-0.3-0.2-0.7-0.4-1.2-0.5c-0.5-0.1-1.1-0.2-1.8-0.2
					c-0.7,0-1.2,0-1.5,0c-0.4,0-0.6,0.1-0.8,0.1c-0.2,0-0.4,0.1-0.5,0.3c-0.2,0.1-0.2,0.4-0.2,0.7v7.6h0.2c0,0,0.1,0,0.3,0
					c0.2,0,0.4,0,0.7,0c0.3,0,0.6,0,0.9,0c0.3,0,0.7,0,1.1,0c0.8,0,1.5-0.1,2-0.2c0.5-0.1,0.9-0.3,1.2-0.5c0.3-0.2,0.5-0.5,0.6-0.8
					c0.1-0.3,0.2-0.6,0.2-1c0-0.5-0.1-1-0.4-1.3C258.5,66.1,258.3,65.8,258,65.7z M257.1,66.9c0.1,0.1,0.2,0.2,0.2,0.3
					c0,0.1,0.1,0.3,0.1,0.4c0,0.2,0,0.4-0.1,0.5c-0.1,0.1-0.2,0.2-0.3,0.3c-0.2,0.1-0.4,0.2-0.6,0.2c-0.3,0.1-0.6,0.1-1,0.1
					c-0.5,0-0.9,0-1.2,0c-0.2,0-0.3,0-0.4,0v-2.1h2.2c0.3,0,0.5,0,0.7,0.1C256.8,66.7,257,66.8,257.1,66.9z M257,64.4
					c0,0.1-0.1,0.2-0.2,0.3c-0.1,0.1-0.2,0.2-0.4,0.2c-0.2,0.1-0.4,0.1-0.7,0.1h-2.1v-1.9c0.1,0,0.2,0,0.4,0c0.3,0,0.7,0,1.1,0
					c0.4,0,0.7,0,0.9,0.1c0.2,0.1,0.4,0.1,0.6,0.2c0.1,0.1,0.2,0.2,0.3,0.3c0.1,0.1,0.1,0.3,0.1,0.4C257.1,64.2,257.1,64.3,257,64.4
					z"/>
				<path id="XMLID_359_" class="st11" d="M268.5,69c-0.2-0.4-0.3-0.9-0.6-1.4c-0.2-0.5-0.4-1.1-0.7-1.7c-0.2-0.6-0.5-1.2-0.7-1.7
					c-0.2-0.5-0.5-1-0.7-1.5c-0.2-0.4-0.4-0.8-0.5-1l0,0c0,0,0,0-0.1-0.1c-0.1,0-0.1-0.1-0.2-0.1c-0.1,0-0.2-0.1-0.3-0.1
					c-0.1,0-0.2,0-0.3,0c-0.3,0-0.6,0.1-0.8,0.2s-0.4,0.4-0.5,0.7c-0.3,0.6-0.6,1.3-0.9,2c-0.3,0.7-0.6,1.3-0.8,2
					c-0.3,0.6-0.5,1.3-0.8,1.9c-0.2,0.6-0.5,1.2-0.7,1.7l-0.1,0.2h1.8l0-0.1c0.1-0.2,0.2-0.6,0.3-0.9c0.1-0.3,0.3-0.7,0.4-1.1h3.8
					c0.1,0.1,0.1,0.3,0.2,0.4c0.1,0.2,0.2,0.4,0.2,0.6s0.1,0.4,0.2,0.6c0.1,0.2,0.1,0.3,0.2,0.4l0,0.1h1.9l-0.1-0.2
					C268.8,69.7,268.7,69.4,268.5,69z M265.6,66.4H263c0.1-0.2,0.2-0.5,0.3-0.7c0.1-0.3,0.3-0.6,0.4-1c0.1-0.3,0.3-0.6,0.4-0.9
					c0.1-0.2,0.1-0.3,0.2-0.4c0,0.1,0.1,0.2,0.1,0.3c0.1,0.3,0.3,0.6,0.4,0.9c0.1,0.3,0.3,0.7,0.4,1
					C265.4,65.9,265.5,66.2,265.6,66.4z"/>
				<path id="XMLID_290_" class="st11" d="M276.9,61.7c-0.1,0-0.3-0.1-0.5-0.1c-0.3,0-0.5,0.1-0.6,0.2c-0.2,0.1-0.2,0.3-0.2,0.6v4.7
					c-0.1-0.2-0.2-0.3-0.3-0.5c-0.2-0.4-0.5-0.7-0.7-1.1l-0.8-1.2c-0.3-0.4-0.5-0.7-0.8-1.1c-0.2-0.3-0.4-0.6-0.6-0.9
					c-0.2-0.2-0.3-0.4-0.4-0.5l0,0c-0.1,0-0.2-0.1-0.3-0.2c-0.2-0.1-0.4-0.1-0.6-0.1c-0.3,0-0.5,0.1-0.7,0.2
					c-0.2,0.1-0.3,0.4-0.3,0.7v7.6h1.7v-5.8c0.1,0.2,0.3,0.4,0.4,0.5c0.2,0.4,0.5,0.7,0.8,1.1l1.5,2.3c0.2,0.4,0.5,0.7,0.7,1
					l0.6,0.9h1.7v-8.3l-0.1,0C277.1,61.8,277,61.7,276.9,61.7z"/>
				<path id="XMLID_289_" class="st11" d="M286.5,69.9c-0.6-0.8-1.2-1.5-1.9-2.2c-0.7-0.7-1.4-1.3-2.1-2c0.1-0.1,0.3-0.2,0.4-0.4
					c0.2-0.2,0.5-0.4,0.8-0.7l0.8-0.7c0.3-0.2,0.5-0.5,0.8-0.7c0.2-0.2,0.4-0.4,0.6-0.5c0.2-0.2,0.3-0.2,0.3-0.3l0.1-0.1l-0.1-0.1
					c-0.1-0.1-0.2-0.2-0.3-0.3c-0.2-0.1-0.4-0.2-0.7-0.2c-0.3,0-0.5,0.1-0.7,0.2c-0.2,0.1-0.4,0.2-0.6,0.4c-0.2,0.1-0.4,0.3-0.6,0.6
					c-0.3,0.2-0.6,0.5-0.9,0.8c-0.3,0.3-0.6,0.6-0.9,0.9c-0.2,0.2-0.3,0.3-0.5,0.4v-3.1l-0.1,0c0,0-0.1,0-0.3-0.1
					c-0.1,0-0.3-0.1-0.5-0.1c-0.3,0-0.5,0.1-0.7,0.2c-0.2,0.1-0.3,0.3-0.3,0.6v7.7h1.7v-3.6c0.3,0.2,0.5,0.4,0.8,0.7
					c0.4,0.3,0.7,0.7,1,1c0.3,0.3,0.6,0.7,0.9,1c0.3,0.3,0.5,0.6,0.7,0.8l0,0.1h2.2L286.5,69.9z"/>
			</g>
		</g>
		<g id="XMLID_322_">
			<circle id="XMLID_288_" class="st11" cx="277.4" cy="42.6" r="1.2"/>
			<g id="XMLID_338_">
				<path id="XMLID_287_" class="st11" d="M186.2,42.1v12.2h2.3V41c-0.2,0-0.6-0.2-1-0.2C186.5,40.8,186.2,41.2,186.2,42.1z"/>
				<path id="XMLID_286_" class="st11" d="M181.3,42.1v8.4c0,1.2-0.6,1.8-1.8,1.8h-1.2V44c-0.2,0-0.6-0.2-1-0.2
					c-0.9,0-1.3,0.4-1.3,1.3v7.2h-2.3c-0.8,0-1.2,0.3-1.2,1.1c0,0.4,0.1,0.8,0.1,0.9l6.9,0c1.2,0,2.1-0.4,2.9-1.1
					c0.7-0.7,1.1-1.6,1.1-2.7V41c-0.2,0-0.6-0.2-1-0.2C181.7,40.8,181.3,41.2,181.3,42.1z"/>
				<path id="XMLID_349_" class="st11" d="M127.1,47.1c0.6,0,1.1,0.2,1.6,0.4c0.5,0.2,0.8,0.1,1-0.2c0.2-0.3,0.5-1,0.6-1.2
					c-0.7-0.4-2.1-1-3.1-1c-2.6,0-4.3,1.5-4.3,4v3.2h-3.5c-1,0-1.8-0.8-1.8-1.8v-4.9c-0.1,0-0.2,0-0.3-0.1c-0.3-0.1-0.5-0.1-0.7-0.1
					c-0.9,0-1.3,0.4-1.3,1.3v3.8c0,1.2-0.6,1.8-1.8,1.8h-2.2c-1.2,0-1.7-0.6-1.8-1.8v-4.7c-0.4-0.1-0.8-0.2-1.3-0.3
					c-0.4-0.1-0.9-0.2-1.4-0.2c-0.5-0.1-1-0.1-1.5-0.1c-0.8,0-1.5,0.1-2,0.3c-0.5,0.2-1,0.5-1.3,0.9c-0.3,0.4-0.6,0.9-0.7,1.4
					c-0.2,0.5-0.2,1.1-0.2,1.7c0,1,0.1,1.9,0.4,2.5c0.3,0.6,0.6,1.1,1,1.4c0.4,0.3,0.9,0.6,1.3,0.7c0.5,0.1,1,0.2,1.5,0.2
					c0.5,0,1-0.1,1.5-0.2c0.5-0.1,0.9-0.3,1.3-0.7c0.1-0.1,0.1-0.1,0.2-0.2l0.1-0.1l0.1,0.1c0.5,0.7,1.5,1,2.9,1h2.4
					c1.1,0,2.1-0.3,2.8-0.9l0.1,0l0.1,0c0.7,0.6,1.6,0.9,2.7,0.9h10.9c0-0.1,0.1-0.5,0.1-0.9c0-0.8-0.3-1.1-1.1-1.1h-3.9v-3.4
					C125.2,47.9,126,47.1,127.1,47.1z M107.3,51.6L107.3,51.6c-0.3,0.2-0.7,0.6-1.9,0.6c-0.6,0-1.1-0.2-1.5-0.6
					c-0.4-0.4-0.5-1.1-0.5-2c0-0.5,0.1-0.9,0.2-1.2c0.1-0.3,0.3-0.6,0.5-0.8c0.2-0.2,0.4-0.3,0.7-0.4c0.3-0.1,0.6-0.1,0.9-0.1
					c0.2,0,0.4,0,0.7,0c0.3,0,0.6,0.1,0.9,0.1l0.1,0V51.6z"/>
				<path id="XMLID_346_" class="st11" d="M165.5,45.1c-1.4,0-2.8,0.4-4.2,1.2l0.4,1.2c0.1,0.2,0.2,0.3,0.3,0.3
					c0.2,0.1,0.5,0.1,0.7,0c1.1-0.5,1.9-0.7,2.8-0.7c1.2,0,2.1,0.5,2.5,1.5c0.3,0.7,0.4,1.5,0.4,2.9v0.6h-10.1c-1,0-1.8-0.8-1.8-1.8
					v-4.9c-0.2,0-0.6-0.2-1-0.2c-0.9,0-1.3,0.4-1.3,1.3v3.8c0,1.2-0.6,1.8-1.8,1.8h-1.7c-1.3,0-2-0.6-2.3-1.8
					c-0.2-1.3-0.6-2.2-1.2-2.7c-0.7-0.6-1.7-1-3-1c-2.5,0-3.9,1.2-4.2,3.7c-0.1,1.2-0.8,1.7-2.2,1.7h-2.5c-0.5,0-0.8-0.2-0.8-0.8
					l0-10.5c-0.2,0-0.6-0.2-1-0.2c-0.9,0-1.3,0.4-1.3,1.3v9.5c0,1.7,1.1,2.8,2.8,2.8h2.8c0.9,0,1.7-0.3,2.3-0.8l0.1-0.1l0,0.1
					c0.7,1.4,2.1,2.1,3.8,2.1c1.9,0,3.3-0.9,3.9-2.3l0-0.1l0.1,0.1c0.6,0.5,1.3,0.9,2.1,0.9l0.1,0v0l2,0c1.1,0,2.1-0.3,2.8-0.9
					l0.1,0l0.1,0c0.7,0.6,1.6,0.9,2.7,0.9h11.5c0.6,0,1-0.5,1-1v-1.6c0-1.9-0.2-3.1-0.8-4.2C169.1,45.9,167.6,45.1,165.5,45.1z
					 M144.4,53.7c-0.8,0-1.9-0.3-1.9-2.5c0-2.2,1.1-2.4,1.9-2.4c0.8,0,1.9,0.3,1.9,2.4C146.2,53.4,145.2,53.7,144.4,53.7z"/>
				<path id="XMLID_281_" class="st11" d="M284.4,46.7v3.8c0,1.2-0.6,1.8-1.8,1.8h-2.4c-1.2,0-1.8-0.6-1.8-1.8v-4.9
					c-0.2,0-0.6-0.2-1-0.2c-0.9,0-1.3,0.4-1.3,1.3v3.8c0,1.2-0.6,1.8-1.8,1.8h-1.9c-1.5,0-2.2-0.8-2.2-2.4V41c-0.2,0-0.6-0.2-1-0.2
					c-0.9,0-1.3,0.4-1.3,1.3v8.4c0,1.2-0.6,1.8-1.8,1.8H260c-1.2,0-1.8-0.6-1.8-1.8v-4.9c-0.2,0-0.6-0.2-1-0.2
					c-0.9,0-1.3,0.4-1.3,1.3v4c0,2.2,1.5,3.6,3.8,3.6h6.5c1.4,0,2.4-0.4,3.1-1.2l0.1-0.1l0.1,0.1c0.7,0.8,1.6,1.2,2.9,1.2h2.2
					c1.1,0,2.1-0.3,2.8-0.9l0.1,0l0.1,0c0.7,0.6,1.6,0.9,2.7,0.9h2.6c1.2,0,2.2-0.4,2.9-1.1c0.7-0.7,1.1-1.6,1.1-2.7v-5
					c-0.2,0-0.6-0.2-1-0.2C284.8,45.4,284.4,45.8,284.4,46.7z"/>
				<path id="XMLID_280_" class="st11" d="M250,42.1v12.2h2.3V41c-0.2,0-0.6-0.2-1-0.2C250.3,40.8,250,41.2,250,42.1z"/>
				<path id="XMLID_340_" class="st11" d="M245.2,42.1v8.4c0,1.2-0.6,1.8-1.8,1.8h-2.2c-1.2,0-1.8-0.6-1.8-1.8v-4.9
					c-0.2,0-0.6-0.2-1-0.2c-0.9,0-1.3,0.4-1.3,1.3v3.8c0,1.2-0.6,1.8-1.8,1.8h-2.3c-1.2,0-1.8-0.6-1.8-1.8v-4.9
					c-0.2,0-0.6-0.2-1-0.2c-0.9,0-1.3,0.4-1.3,1.3v3.8c0,1.2-0.6,1.8-1.8,1.8h-2c-1.3,0-2-0.6-2.3-1.8c-0.2-1.3-0.6-2.2-1.2-2.7
					c-0.7-0.6-1.7-1-3-1c-2.5,0-3.9,1.2-4.2,3.7c-0.1,1.2-0.9,1.8-2.2,1.8h-1.7c-1.2,0-1.8-0.6-1.8-1.8v-4.9c-0.2,0-0.6-0.2-1-0.2
					c-0.9,0-1.3,0.4-1.3,1.3v3.8c0,1.2-0.6,1.8-1.8,1.8h-2.4c-1.2,0-1.7-0.6-1.7-1.8v-4.7c-0.4-0.1-0.8-0.2-1.3-0.3
					c-0.4-0.1-0.9-0.2-1.4-0.2c-0.5-0.1-1-0.1-1.5-0.1c-0.8,0-1.5,0.1-2,0.3c-0.5,0.2-1,0.5-1.3,0.9c-0.3,0.4-0.6,0.9-0.7,1.4
					c-0.2,0.5-0.2,1.1-0.2,1.7c0,1,0.1,1.9,0.4,2.5c0.3,0.6,0.6,1.1,1,1.4c0.4,0.3,0.9,0.6,1.3,0.7c0.5,0.1,1,0.2,1.5,0.2
					c0.5,0,1-0.1,1.5-0.2c0.5-0.1,0.9-0.3,1.3-0.7c0.1-0.1,0.1-0.1,0.2-0.2l0.1-0.1l0.1,0.1c0.5,0.7,1.5,1,2.9,1h2.6
					c1.1,0,2.1-0.3,2.8-0.9l0.1,0l0.1,0c0.7,0.6,1.6,0.9,2.7,0.9h1.9c0.9,0,1.7-0.3,2.3-0.8l0.1-0.1l0,0.1c0.7,1.4,2.1,2.1,3.8,2.1
					c1.9,0,3.3-0.9,3.9-2.3l0-0.1l0.1,0.1c0.6,0.5,1.3,1,2.1,1h2.4c1.1,0,2.1-0.3,2.8-0.9l0.1,0l0.1,0c0.7,0.6,1.6,0.9,2.7,0.9h2.5
					c1.1,0,2.1-0.3,2.8-0.9l0.1,0l0.1,0c0.7,0.6,1.6,0.9,2.7,0.9h2.4c1.2,0,2.1-0.4,2.9-1.1c0.7-0.7,1.1-1.6,1.1-2.7V41
					c-0.2,0-0.6-0.2-1-0.2C245.5,40.8,245.2,41.2,245.2,42.1z M198.5,51.6L198.5,51.6c-0.3,0.2-0.7,0.6-1.9,0.6
					c-0.6,0-1.1-0.2-1.5-0.6c-0.4-0.4-0.5-1.1-0.5-2c0-0.5,0.1-0.9,0.2-1.2c0.1-0.3,0.3-0.6,0.5-0.8c0.2-0.2,0.4-0.3,0.7-0.4
					c0.3-0.1,0.6-0.1,0.9-0.1c0.2,0,0.4,0,0.7,0c0.3,0,0.6,0.1,0.9,0.1l0.1,0V51.6z M218.9,53.7c-0.3,0-0.9,0-1.3-0.4
					c-0.4-0.4-0.6-1.1-0.6-2c0-2.2,1.1-2.4,1.9-2.4c0.3,0,0.9,0,1.3,0.4c0.4,0.4,0.6,1.1,0.6,2C220.7,53.4,219.7,53.7,218.9,53.7z"
					/>
				<path id="XMLID_276_" class="st11" d="M264.7,48.4c0-0.4-0.2-0.5-0.5-0.5h-1.7V47c0-0.5,0.4-0.8,0.8-0.8c0.2,0,0.5,0.1,0.7,0.2
					c0.2,0.1,0.4,0.1,0.5-0.1c0.1-0.2,0.3-0.6,0.3-0.6c-0.3-0.2-1-0.5-1.4-0.5c-1.3,0-1.9,0.8-1.9,1.8v1.7h3.2
					C264.7,48.8,264.7,48.6,264.7,48.4z"/>
			</g>
			<circle id="XMLID_275_" class="st11" cx="281.6" cy="56.9" r="1.2"/>
			<path id="XMLID_274_" class="st11" d="M107,43.8c0.7,0,1.3-0.6,1.3-1.3c0-0.7-0.6-1.2-1.3-1.2c-0.7,0-1.2,0.6-1.2,1.2
				C105.7,43.3,106.3,43.8,107,43.8z"/>
			<path id="XMLID_273_" class="st11" d="M103.7,43.8c0.7,0,1.3-0.6,1.3-1.3c0-0.7-0.6-1.2-1.3-1.2c-0.7,0-1.3,0.6-1.3,1.2
				C102.4,43.3,103,43.8,103.7,43.8z"/>
			<path id="XMLID_272_" class="st11" d="M118,55.7c-0.7,0-1.2,0.6-1.2,1.2c0,0.7,0.5,1.3,1.2,1.3c0.7,0,1.3-0.6,1.3-1.3
				C119.3,56.2,118.7,55.7,118,55.7z"/>
			<path id="XMLID_271_" class="st11" d="M114.8,55.7c-0.7,0-1.2,0.5-1.2,1.2c0,0.7,0.5,1.3,1.2,1.3c0.7,0,1.3-0.6,1.3-1.3
				C116,56.2,115.5,55.7,114.8,55.7z"/>
			<path id="XMLID_270_" class="st11" d="M153.8,43.8c0.7,0,1.3-0.6,1.3-1.3c0-0.7-0.6-1.2-1.3-1.2c-0.7,0-1.2,0.5-1.2,1.2
				C152.5,43.3,153.1,43.8,153.8,43.8z"/>
			<path id="XMLID_269_" class="st11" d="M157,43.8c0.7,0,1.3-0.6,1.3-1.3c0-0.7-0.6-1.2-1.3-1.2c-0.7,0-1.2,0.6-1.2,1.2
				C155.8,43.3,156.3,43.8,157,43.8z"/>
			<path id="XMLID_268_" class="st11" d="M166,55.7c-0.7,0-1.2,0.6-1.2,1.2c0,0.7,0.6,1.3,1.2,1.3c0.7,0,1.3-0.6,1.3-1.3
				C167.3,56.2,166.7,55.7,166,55.7z"/>
			<path id="XMLID_267_" class="st11" d="M209.5,55.7c-0.7,0-1.2,0.6-1.2,1.2c0,0.7,0.6,1.3,1.2,1.3c0.7,0,1.3-0.6,1.3-1.3
				C210.7,56.2,210.1,55.7,209.5,55.7z"/>
			<path id="XMLID_266_" class="st11" d="M206.2,55.7c-0.7,0-1.2,0.5-1.2,1.2c0,0.7,0.6,1.3,1.2,1.3c0.7,0,1.3-0.6,1.3-1.3
				C207.5,56.2,206.9,55.7,206.2,55.7z"/>
			<path id="XMLID_265_" class="st11" d="M230.2,43.8c0.7,0,1.3-0.6,1.3-1.3c0-0.7-0.6-1.2-1.3-1.2c-0.7,0-1.3,0.6-1.3,1.2
				C229,43.3,229.6,43.8,230.2,43.8z"/>
			<path id="XMLID_264_" class="st11" d="M236.7,43.8c0.7,0,1.3-0.6,1.3-1.3c0-0.7-0.6-1.2-1.3-1.2c-0.7,0-1.2,0.5-1.2,1.2
				C235.5,43.3,236.1,43.8,236.7,43.8z"/>
			<path id="XMLID_263_" class="st11" d="M240,43.8c0.7,0,1.3-0.6,1.3-1.3c0-0.7-0.6-1.2-1.3-1.2c-0.7,0-1.2,0.6-1.2,1.2
				C238.7,43.3,239.3,43.8,240,43.8z"/>
			<path id="XMLID_262_" class="st11" d="M198.1,43.8c0.7,0,1.3-0.6,1.3-1.3c0-0.7-0.6-1.2-1.3-1.2c-0.7,0-1.2,0.6-1.2,1.2
				C196.9,43.3,197.5,43.8,198.1,43.8z"/>
			<path id="XMLID_261_" class="st11" d="M194.9,43.8c0.7,0,1.3-0.6,1.3-1.3c0-0.7-0.6-1.2-1.3-1.2c-0.7,0-1.3,0.6-1.3,1.2
				C193.6,43.3,194.2,43.8,194.9,43.8z"/>
		</g>
	</g>
	<linearGradient id="XMLID_189_" gradientUnits="userSpaceOnUse" x1="304.4557" y1="86.0725" x2="354.738" y2="10.502">
		<stop  offset="0" style="stop-color:#0074B0"/>
		<stop  offset="0.5" style="stop-color:#21B5BA"/>
		<stop  offset="1" style="stop-color:#8DC154"/>
	</linearGradient>
	<path id="XMLID_260_" class="st12" d="M318,40.8h7.4c4.3,0,7.7-3.5,7.7-7.7v-7.4c0-1,0.8-1.8,1.8-1.8h7.4c4.3,0,7.7-3.5,7.7-7.7
		V7.1h-9.1c-4.3,0-7.7,3.5-7.7,7.7v7.4c0,1-0.8,1.8-1.8,1.8h-7.4c-4.3,0-7.7,3.5-7.7,7.7V39c0,1-0.8,1.8-1.8,1.8H307
		c-4.3,0-7.7,3.5-7.7,7.7v9.1c0,14,11.3,25.3,25.3,25.3c14,0,25.3-11.3,25.3-25.3l0-16.9h-9.1c-4.3,0-7.7,3.5-7.7,7.7v9.1
		c0,4.7-3.8,8.4-8.4,8.4s-8.4-3.8-8.4-8.4V42.6C316.2,41.6,317,40.8,318,40.8z"/>
</g>
</svg>
